PathFileType	4	(X/Y/Z)	C:\Users\WrightLab\Desktop\Jo\P2_Trial11.trc
DataRate	CameraRate	NumFrames	NumMarkers	Units	OrigDataRate	OrigDataStartFrame	OrigNumFrames
100.00	100.00	      14	19	mm	100.00	582	      1163
Frame#	Time	Headset_Front			Headset_Back			Headset_Left			Headset_Right			Left_Shoulder			Right_Shoulder			Sternum			C7			Left Elbow			Right Elbow			Left Wrist			Right Wrist			Left ASIS			Right ASIS			S2			Left Knee			Right Knee			Left Ankle			Right Ankle			
		X1	Y1	Z1	X2	Y2	Z2	X3	Y3	Z3	X4	Y4	Z4	X5	Y5	Z5	X6	Y6	Z6	X7	Y7	Z7	X8	Y8	Z8	X9	Y9	Z9	X10	Y10	Z10	X11	Y11	Z11	X12	Y12	Z12	X13	Y13	Z13	X14	Y14	Z14	X15	Y15	Z15	X16	Y16	Z16	X17	Y17	Z17	X18	Y18	Z18	X19	Y19	Z19	

582	5.810	-144.41400	1468.01025	525.40533	-105.58637	1705.42688	720.57465	-227.88672	1593.73889	672.93390	-27.62896	1553.50574	563.01697	-215.97597	1469.82935	840.68140	51.40372	1446.74634	644.88031	-123.76163	1340.62610	695.37500	-6.44919	1454.31799	827.28864	-395.64075	1138.74023	826.22113	193.21944	1134.87183	660.57800	-280.60925	1172.61853	933.53693	113.83706	1012.23108	502.31119	-191.71973	1057.35620	710.40430	-90.34854	1046.67188	627.95282	11.17141	962.58984	875.89954	-151.80533	464.68442	952.55414	-18.72465	580.27814	575.73358	-39.95014	136.59518	1059.76160	-159.24481	164.42377	556.47803	
583	5.820	-148.37018	1468.90894	519.28870	-108.99821	1705.52808	714.80768	-232.37018	1595.52563	666.93457	-31.07531	1553.73901	556.66595	-219.06168	1471.18103	835.69867	46.72496	1446.18188	637.95007	-128.52777	1341.31812	689.38989	-10.19201	1454.57764	821.02960	-399.28625	1139.08972	821.07678	187.12892	1133.76453	649.71552	-281.25085	1172.72864	927.06836	109.16525	1008.48279	492.17630	-196.10577	1057.94287	704.96185	-95.35484	1047.03516	622.09705	7.81508	963.06042	868.80023	-156.82983	465.58563	945.68988	-24.58099	581.62048	568.10291	-43.77890	139.32266	1056.55835	-158.71971	163.53203	558.06757	
584	5.830	-152.31433	1469.85815	513.30664	-111.98280	1706.61475	708.71533	-235.39394	1595.75269	660.69946	-34.27363	1555.62952	553.09650	-222.43401	1472.10010	830.58160	41.73746	1446.15320	630.41687	-133.21875	1342.06250	683.41534	-13.71978	1455.08728	814.62433	-404.01187	1140.96191	816.36896	180.21179	1132.79712	638.10052	-287.13004	1173.85632	922.90021	104.53072	1005.32452	483.96851	-200.93137	1058.38086	699.99689	-100.99651	1047.89648	616.04224	5.22746	963.15607	861.17511	-161.28850	466.22482	938.20245	-30.59921	581.87305	561.08228	-47.43034	142.08743	1053.27087	-159.09189	161.98720	560.29968	
585	5.840	-155.74289	1471.35815	507.88046	-116.21590	1707.34070	703.54468	-240.27542	1597.22351	654.97821	-38.32503	1556.90271	546.85431	-226.01170	1473.08972	826.24872	36.37970	1445.43726	623.36316	-138.28181	1342.60840	678.14691	-16.67461	1455.57776	808.35760	-408.23569	1141.98438	811.69843	173.96271	1131.61414	627.95862	-290.39188	1174.46570	917.77905	99.58817	1003.40479	473.90268	-205.28685	1058.55847	694.65094	-106.21276	1048.05249	609.54401	2.16400	963.09412	854.21191	-166.37373	466.24158	928.91455	-35.77066	581.82391	554.84180	-51.96259	144.57771	1049.39587	-159.12016	161.06337	561.87061	
586	5.850	-160.33488	1471.80103	501.09384	-119.67653	1707.55249	697.88342	-244.46043	1597.84314	649.03333	-41.99189	1557.02612	540.16449	-229.19897	1473.95288	821.27240	31.31834	1444.77979	616.22400	-143.58746	1343.07703	673.23584	-19.38771	1455.60254	802.03094	-412.13553	1142.26855	806.41742	167.82585	1130.69958	617.71741	-292.50092	1175.57532	912.14862	94.24925	1001.73102	462.76117	-210.20679	1058.74329	690.04590	-112.10084	1047.54724	603.27856	-0.93971	962.78076	846.52740	-171.29112	465.98846	918.57147	-39.93648	581.83752	549.77301	-56.94677	149.40430	1045.93811	-159.29552	160.29675	563.37671	
587	5.860	-164.27057	1472.77148	495.00943	-123.85590	1708.45459	692.39417	-248.22917	1598.55469	643.07745				-231.91951	1474.69373	817.10474	25.92079	1444.95715	609.60687	-148.37836	1343.73145	668.04529	-22.96521	1456.43823	795.86603	-416.06436	1145.12170	802.11029	161.56375	1130.20911	605.82971	-298.17932	1176.31372	907.99329	90.02077	1000.82379	453.13336	-214.67979	1059.04785	685.27234	-118.01992	1047.57458	598.29816	-3.38560	963.16779	839.66534	-177.34523	465.07050	907.69611	-44.02876	581.65076	545.02612	-61.38015	153.81430	1040.33130	-159.65471	159.15446	564.96356	
588	5.870	-168.42274	1473.79919	489.23792	-128.58249	1708.90344	687.08002	-252.00183	1599.41125	637.45642	-50.93064	1558.67175	528.91266	-235.10948	1475.67285	813.21930	20.85697	1444.98230	603.09875	-153.28322	1344.49072	663.18152	-28.91486	1454.86499	786.77881	-420.93533	1146.89050	797.70282	155.93976	1129.96790	596.34399	-300.30585	1176.39246	902.55481	83.56489	999.13312	443.21179	-220.67249	1057.89429	680.32831	-123.75466	1047.23987	592.02289	-6.23861	963.59332	832.61292	-182.45229	462.64423	896.54474	-47.06487	580.96301	540.82202	-65.36777	156.97147	1032.31006	-159.86191	158.06596	566.65656	
589	5.880	-172.45140	1474.50134	483.16205	-132.90195	1709.14600	681.84802	-256.28009	1599.74072	631.68530	-54.89029	1559.31519	523.54950	-239.18463	1476.48621	808.47717	15.48709	1445.01074	596.26733	-157.93977	1344.87512	658.17676	-31.50269	1456.29724	779.92181	-425.34406	1148.64233	793.43793	149.51291	1130.06738	585.56427	-305.96286	1178.21973	898.49310	78.34212	997.77240	433.93173	-225.57329	1058.01074	675.47339	-128.32375	1047.15063	587.63544	-9.37345	963.38428	825.94135	-189.71362	462.14661	885.00928	-49.58403	580.65698	537.75092	-70.40329	162.47476	1024.12915	-160.24074	157.10909	568.51099	
590	5.890	-175.97955	1475.81738	478.35535	-136.63441	1710.16785	676.43372	-260.50366	1600.77344	626.28253	-58.11588	1559.17517	526.65601	-242.60115	1477.62830	804.25098	10.02507	1445.86975	589.26813	-162.80666	1345.23108	653.51971	-35.44253	1456.60413	773.65765	-428.90152	1150.15027	789.20221	143.71257	1130.57605	574.73932	-307.36786	1179.09155	892.86926	72.18780	996.69458	423.94452	-230.30168	1058.32434	670.75659	-134.44849	1046.78662	582.89313	-12.17878	964.52734	820.10272	-196.91466	459.89471	872.03070	-51.86612	579.52789	535.13989	-75.36743	167.52126	1015.33490	-160.98212	156.48860	570.14966	
591	5.900	-180.63539	1475.79138	472.18863	-141.09721	1710.64124	670.97961	-264.18881	1601.12695	620.86371	-62.79266	1560.55652	512.76886	-246.14799	1478.07080	799.60370	4.83504	1446.83032	583.59796	-167.05112	1345.40747	648.25067	-39.04504	1457.05615	767.50494	-432.64044	1151.82642	785.07196	137.40115	1131.55103	564.83600	-311.03629	1180.04077	888.67090	66.27663	995.86938	414.76349	-234.90591	1058.96826	667.43811	-140.25778	1048.20203	578.05426	-15.15219	965.48584	814.04291	-205.43753	458.15286	859.23004	-52.96817	578.57483	532.78320	-81.51733	172.76659	1005.35858	-160.88426	155.90825	571.04370	
592	5.910	-184.71268	1476.54663	466.88416	-145.53329	1711.30310	665.82697	-268.72577	1601.36987	615.45068	-66.99316	1561.16858	507.41226	-247.72421	1478.35486	795.40063	-0.28919	1447.22021	577.52112	-171.96935	1345.74060	643.94220	-41.98524	1457.93494	762.23859	-436.78793	1153.87109	781.08551	131.96202	1132.64246	555.87732	-313.06073	1180.21082	883.90167	60.62677	994.98364	407.01740	-239.44946	1060.04712	662.93732	-145.30035	1048.35229	573.72437	-19.09655	966.06854	809.18536	-214.79910	457.70126	845.81659	-53.55962	577.73181	530.44720	-87.61562	177.65709	994.60480	-161.14034	154.91043	571.77692	
593	5.920	-188.59721	1476.99304	461.46048	-149.30267	1711.45618	660.54932	-272.67996	1602.09448	609.94684	-70.72449	1561.58765	509.77490	-251.51546	1479.03418	791.29163	-5.48937	1448.52478	571.67206	-176.44438	1346.09058	639.36469	-45.97302	1458.66321	756.48480	-440.87949	1155.30103	777.22925	126.10420	1133.56689	546.16418	-318.89600	1181.55188	880.32733	54.77233	994.28778	398.50568	-243.84822	1061.32837	658.21692	-150.28520	1049.52344	569.00555	-20.83074	969.36871	803.70764	-223.52095	456.15634	832.12061	-53.72066	576.46143	527.88666	-95.40429	181.64832	982.93427	-161.61928	154.06062	572.05121	
594	5.930	-192.67047	1477.44922	456.29639	-153.48892	1712.40479	655.22626	-276.60919	1602.54736	604.78522	-74.94450	1562.19470	496.67670	-254.82831	1479.54883	787.04102	-10.86344	1449.15967	566.11151	-180.73817	1346.65320	634.65356	-49.52678	1459.37561	751.38129	-444.40256	1156.64978	773.41675	120.25301	1134.54053	536.55811	-320.95648	1182.34375	875.33154	48.92027	993.99652	389.49063	-248.08290	1062.83008	654.58197	-155.12198	1051.31287	563.34015	-25.93752	969.72900	798.19379	-233.80629	456.21167	818.33270	-53.90132	575.28577	526.14850	-104.60337	186.61638	971.47906	-161.27527	153.28059	571.96729	
595	5.940	-195.91460	1478.29468	451.83752	-158.51982	1712.59204	650.08325	-280.94452	1602.57654	599.25269	-78.44507	1562.03638	501.51770	-258.46606	1480.18286	782.55493	-15.76319	1450.20166	559.61328	-185.08443	1347.33459	630.24036	-53.68790	1459.81116	745.72949	-448.49438	1157.85486	769.70551	114.94236	1135.98682	527.49182	-323.59012	1182.98108	870.88153	43.23777	993.52856	380.11319	-252.29465	1064.01514	651.07312	-159.67104	1051.84900	560.05908	-30.43692	969.77435	793.65948	-245.02563	458.07462	806.53693	-53.46744	573.83728	524.01837	-114.56049	190.36957	959.25659	-160.77939	151.59131	571.27130	
